<?xml version="1.0" encoding="UTF-8"?>
<svg id="Layer_1" data-name="Layer 1" xmlns="http://www.w3.org/2000/svg" viewBox="0 0 5000 5000">
  <defs>
    <style>
      .cls-1 {
        fill: #cc631d;
      }

      .cls-2 {
        fill: #f7b369;
      }
    </style>
  </defs>
  <circle class="cls-2" cx="2479.82" cy="2442.25" r="1801.98"/>
  <g>
    <path class="cls-1" d="M2480.08,2505.95c372.46,0,744.91.05,1117.37-.09,30.61-.01,61.18.34,90.47,10.09,81.01,26.97,124.69,85.77,139.02,167.72,10.67,61.04,2.77,119.91-28.59,174.17-7.17,12.41-5.47,17.86,6.08,26.31,90.16,65.89,80.7,204.43-17.78,259.83-14.3,8.04-22.09,15-20.64,33.37,15.4,195.48-136.25,371.1-348.7,399.45-23.73,3.17-47.9,4.31-71.87,4.32-579.48.2-1158.96.29-1738.44-.01-196.43-.1-362.39-125.37-404.74-303.85-7.97-33.61-10.61-67.58-7.86-101.83,1.12-13.99-3.58-21.07-15.68-28.35-107.04-64.38-115.56-182.86-18.57-263.08,14.4-11.91,4.79-18.57-.22-27.12-34.39-58.74-42.31-121.7-27.88-187.29,21.6-98.12,97.11-160.2,197.37-162.98,43.41-1.2,86.87-.65,130.31-.65,340.11-.04,680.22-.02,1020.33-.02ZM2482.54,3169.62v-.2c-243.95,0-487.9.07-731.84-.03-139.53-.05-279.06.13-418.59-1.01-25.18-.21-35.25,8.38-35.08,33.33.19,27.22,4.78,53.28,14.27,78.58,43.3,115.4,160.14,194.88,289.89,195.42,159.86.66,319.72-.01,479.58-.07,424.13-.14,848.27-.45,1272.4-.2,85.83.05,162.45-23.94,225.57-83.2,52.53-49.32,83.66-109.9,86.45-183.09,1.21-31.78-6.88-39.54-37.76-39.54-381.63.03-763.26.02-1144.89.02ZM2480.02,2615.17c-362.25,0-724.5-.03-1086.76.06-24.94,0-50.02-.68-74.78,1.64-42.84,4.01-72.46,27.49-85.14,68.54-14.84,48.02-6.5,93.46,23.31,134.03,17.98,24.47,43.01,37.33,73.7,37.77,53.6.77,98.79-19.46,137.92-55.19,37.96-34.65,61.16-36.45,104.2-11,177.19,104.75,350.84,96.96,520.55-17.71,41.93-28.33,69.62-28.69,111.12,1.87,29.15,21.47,59.38,41.27,93.59,53.29,159.88,56.18,312.3,45.94,453.67-53.82,22.82-16.1,45.83-27.39,74.6-20.65,18.68,4.38,32.96,16.23,47.96,26.93,147.07,104.91,358.27,110.19,509.94,12.69,42.1-27.06,70.63-25.5,107.42,8.1,27.16,24.8,57.07,43.71,93.13,52.26,73.29,17.37,127.34-14.01,141.47-85.72,10.07-51.08,5.57-99.93-40.91-135.06-23.86-18.04-51.53-18.06-79.43-18.06-375.19.06-750.38.04-1125.57.03ZM2479.02,3060.1v.31c403.04,0,806.08.01,1209.12-.08,11.05,0,22.37.21,33.1-1.99,26.1-5.35,42.91-29.7,39.55-55.26-3.29-25.06-23.16-41.96-50-42.02-14.78-.03-29.6.17-44.35,1.13-82.84,5.4-160.21-9.93-228.02-60.52-11.86-8.85-20.05-2.32-30.07,2.48-198.57,94.96-392.81,87.55-581.86-26.14-14.59-8.77-23.95-9.63-39.2-.53-207.12,123.65-414.85,121.35-621.87-.35-15.06-8.85-24.91-8.67-39.48.43-179.73,112.27-366.84,119.57-558.27,34.22-29.08-12.97-48.05-15.11-75.52,4.77-68.4,49.5-148.1,52.65-228.7,42.59-23.79-2.97-42.32,3.38-55.4,22.47-11.37,16.59-11.05,35.25-1.02,52.57,12.69,21.93,33.85,26.06,57.34,26.05,404.89-.18,809.77-.13,1214.66-.13Z"/>
    <path class="cls-1" d="M2483.39,2418.8c-402.07,0-804.14.01-1206.2-.04-22.15,0-44.23.18-66.07-5.57-62.9-16.55-105.3-54.43-117.08-119.24-12.4-68.23,10.36-124.96,69.94-162.13,21.61-13.48,27.87-27.91,29.73-52.33,10.29-134.75,64.49-253.43,141.79-361.85,154.7-216.99,364.81-361.06,615.02-442.87,446.4-145.94,882.48-119.52,1298.03,107.55,208.92,114.16,369.73,278.18,464.72,500.58,29.64,69.4,48.53,141.57,50.95,217.34.42,13.13,5.68,19,16.77,24.9,68.5,36.47,100.42,104.77,83.39,175.98-17.01,71.15-75.62,116.91-155.38,117.02-378.96.54-757.92.19-1136.88.16-29.58,0-59.15,0-88.73,0v.51ZM2475.93,2105.58v-.54c379.77,0,759.54.01,1139.31-.02,48.23,0,49.79-2.32,42.12-51.31-7.64-48.73-22.51-95.28-42.58-140.08-90.21-201.39-239.97-348.42-432.43-448.52-397.62-206.82-811.26-229.12-1231.88-79.74-228.36,81.1-418.56,218.4-551.88,425.52-51.41,79.86-89.93,165.41-101.78,261.1-3.05,24.65,4.63,34.2,31.51,34.14,382.54-.78,765.08-.53,1147.62-.53ZM2478.11,2309.58v-.11c408.48,0,816.95,0,1225.43-.01,38.34,0,57.77-14.32,58.9-43.13,1.16-29.54-23.12-53.17-57.23-55.31-10.13-.63-20.32-.4-30.49-.39-798.47.1-1596.94.22-2395.41.37-10.16,0-20.38-.2-30.47.82-32.58,3.3-54,27.19-51.73,57,2.05,26.87,21.25,40.79,55.58,40.78,408.47-.04,816.95-.02,1225.42-.02Z"/>
    <path class="cls-1" d="M2977.93,1788.24c.32,25.73-15.94,47.69-38.06,52.48-25.55,5.54-44.21-3.8-54.31-30.72-29.64-78.95-77.18-143.82-144.66-194.94-35.28-26.73-36.86-61.06-7.46-86.31,17.24-14.81,37.38-18.37,56.28-5.73,94.03,62.88,157.68,148.29,187.45,258.05.71,2.63.6,5.49.76,7.17Z"/>
    <path class="cls-1" d="M1980.54,1783.34c1.46-6.1,3-17.19,6.77-27.46,34.37-93.67,92.89-169.05,174.6-226,32.31-22.52,62.45-17.41,78.68,10.65,13.29,22.97,8.02,47.7-15.63,69.02-20.5,18.49-42.95,34.99-62.19,54.67-39.85,40.73-68.14,88.94-87.3,142.73-10.08,28.31-29.38,39.4-54.9,34.07-23.61-4.93-40.35-27-40.03-57.69Z"/>
  </g>
</svg>