<?xml version="1.0" encoding="UTF-8"?>
<svg id="Layer_1" data-name="Layer 1" xmlns="http://www.w3.org/2000/svg" viewBox="0 0 4000 4000">
  <defs>
    <style>
      .cls-1 {
        fill: #414042;
      }

      .cls-2 {
        fill: #fff;
      }

      .cls-3 {
        fill: #ff2238;
      }
    </style>
  </defs>
  <path class="cls-1" d="M1978.7,978.87h0c79.09,0,143.29,64.21,143.29,143.29v143.29h-286.59v-143.29c0-79.09,64.21-143.29,143.29-143.29Z"/>
  <path class="cls-1" d="M1978.7,3021.13c165.92,0,300.42-134.5,300.42-300.42h-600.85c0,165.92,134.5,300.42,300.42,300.42Z"/>
  <path class="cls-1" d="M2312.06,1870.52c-38.28-38.28-68.35-82.88-89.36-132.56-21.77-51.47-32.81-106.1-32.81-162.38s11.04-110.91,32.81-162.38c21.01-49.68,51.08-94.28,89.36-132.56,6.96-6.96,14.14-13.64,21.51-20.06-99.21-73.41-221.96-116.83-354.86-116.83h0c-329.82,0-597.2,267.37-597.2,597.2v442.86c0,53.9-23.46,105.14-64.27,140.35l-167.7,144.72c-22.78,19.66-35.87,48.25-35.87,78.34h0c0,57.15,46.33,103.48,103.48,103.48h1523.13c57.15,0,103.48-46.33,103.48-103.48h0c0-30.09-13.1-58.69-35.87-78.34l-167.7-144.72c-40.81-35.22-64.27-86.45-64.27-140.35v-192.26c-45.31-3.32-89.35-13.93-131.28-31.67-49.68-21.01-94.28-51.08-132.56-89.36Z"/>
  <circle class="cls-3" cx="2607" cy="1575.58" r="347.11" transform="translate(-350.53 2304.9) rotate(-45)"/>
  <path class="cls-2" d="M2574.1,1774.43v-316.74c-19.06,11.65-56.39,23.83-77.39,26.76v-52.6c33.76-7.61,71.97-29.68,97.1-55.12h49.47v397.71h-69.18Z"/>
</svg>