<?xml version="1.0" encoding="UTF-8"?>
<svg id="Layer_1" data-name="Layer 1" xmlns="http://www.w3.org/2000/svg" viewBox="0 0 5000 5000">
  <path d="M2078.06,848.6c248.16-7.34,451.51,29.92,673.08,144.2,389.72,201.05,673.08,599.6,711.59,1039.88,26.36,300.89-58.57,675.6-257.68,912.76,42.53,37.6,81.96,78.4,122.08,118.41l443.71,439.01c105.45,103.51,211.71,206.32,314.42,312.7,193.37,200.36-45.74,407.95-181.11,313.04-40.69-28.54-74.85-66.6-109.93-101.44l-128.27-127.23c-84.13-84.59-172.17-165.52-253.21-253.09-148.1-152.91-307.65-299.86-453-453.46-138.7,132.51-450.93,242.2-631.81,266.73-632.04,85.62-1232.45-296.76-1424.9-902.21-244.61-769.48,274.53-1598.56,1073.8-1698.97,33.47-4.24,67.51-5.85,101.21-10.32h.02ZM2125.18,1202.9c-280.26,19.94-503.2,114.97-690.27,330.81-486.12,560.74-182.48,1428.34,555.13,1561.19,63.62,11.46,130.44,17.77,195.09,13.76,525.21-16.74,941.41-453,923.19-979.7-18.57-530.94-455.06-934.99-983.14-926.05h0Z"/>
</svg>